<?xml version="1.0" encoding="UTF-8"?>
<svg xmlns="http://www.w3.org/2000/svg" viewBox="0 0 200 200" role="img">
  <defs>
    <radialGradient id="bg" cx="50%" cy="50%" r="55%">
      <stop offset="0%" stop-color="hsl(98,45%,12%)"/>
      <stop offset="100%" stop-color="hsl(98,55%,4%)"/>
    </radialGradient>
    <filter id="glow"><feGaussianBlur stdDeviation="2"/></filter>
  </defs>
  <rect width="200" height="200" fill="url(#bg)"/>
  <g filter="url(#glow)" opacity="0.55"><circle cx="100" cy="100" r="30" fill="none" stroke="#3a86ff" stroke-width="0.6" opacity="0.55"/><circle cx="100" cy="100" r="48" fill="none" stroke="#3a86ff" stroke-width="0.6" opacity="0.45"/><circle cx="100" cy="100" r="66" fill="none" stroke="#3a86ff" stroke-width="0.6" opacity="0.35"/><circle cx="100" cy="100" r="84" fill="none" stroke="#3a86ff" stroke-width="0.6" opacity="0.25"/><circle cx="100" cy="100" r="102" fill="none" stroke="#3a86ff" stroke-width="0.6" opacity="0.15"/></g>
  <polygon points="66.9,56.1 131.5,54.9 152.6,116.1 101.0,155.0 48.0,117.9" fill="none" stroke="#7209b7" stroke-width="2.2" opacity="0.85"/>
  <polygon points="66.9,56.1 131.5,54.9 152.6,116.1 101.0,155.0 48.0,117.9" fill="#480475" opacity="0.18"/>
  <circle cx="100" cy="100" r="6" fill="#3a86ff"/><circle cx="100" cy="100" r="14" fill="none" stroke="#3a86ff" stroke-width="1.2" opacity="0.8"/>
  <g><circle cx="116.5" cy="42.3" r="2" fill="#3a86ff" opacity="0.7"/><circle cx="161.7" cy="73.8" r="2" fill="#3a86ff" opacity="0.7"/><circle cx="165.3" cy="134.7" r="2" fill="#3a86ff" opacity="0.7"/><circle cx="115.5" cy="179.5" r="2" fill="#3a86ff" opacity="0.7"/><circle cx="43.4" cy="167.4" r="2" fill="#3a86ff" opacity="0.7"/><circle cx="35.0" cy="98.9" r="2" fill="#3a86ff" opacity="0.7"/><circle cx="55.7" cy="43.3" r="2" fill="#3a86ff" opacity="0.7"/></g>
</svg>
